<?xml version="1.0" encoding="iso-8859-1"?>
<!-- Generator: Adobe Illustrator 19.0.0, SVG Export Plug-In . SVG Version: 6.00 Build 0)  -->
<svg version="1.1" id="Capa_1" xmlns="http://www.w3.org/2000/svg" xmlns:xlink="http://www.w3.org/1999/xlink" x="0px" y="0px"
	 viewBox="0 0 512.001 512.001" style="enable-background:new 0 0 512.001 512.001;" xml:space="preserve">
<path style="fill:#D7D7E6;" d="M436.841,271.403c27.095-80.033,3.344-179.159-60.082-200.631s-142.508,42.842-169.602,122.873
	s8.059,145.477,71.484,166.949C342.067,382.066,409.746,351.436,436.841,271.403z"/>
<path style="fill:#F0F0FA;" d="M317.772,234.73c0-84.494-54.283-170.771-121.244-170.771S75.284,150.235,75.284,234.73
	s54.283,135.21,121.244,135.21S317.772,319.224,317.772,234.73z"/>
<path style="fill:#F5C86E;" d="M410.901,370.762H101.099c-35.323,0-63.959-28.636-63.959-63.959v-79.949h437.72v79.949
	C474.86,342.127,446.224,370.762,410.901,370.762z"/>
<polygon style="fill:#C88C64;" points="416.897,447.713 501.842,447.713 501.842,387.738 354.937,370.748 447.877,310.454 
	396.91,293.145 278.616,370.561 277.986,370.762 10.157,370.762 10.157,447.713 436.97,447.713 "/>
<g>
	<path style="fill:#A5DC69;" d="M211.836,352.347c-23.419-22.982-18.231-66.078-18.198-66.429l-0.007-0.007l0.005,0.005
		l-0.009-0.009l0.006,0.006c0.183-0.017,41.676-4.099,65.146,18.923c23.457,23.021,19.231,65.24,19.199,65.422l0.012,0.012
		C277.99,370.271,235.349,375.426,211.836,352.347z"/>
	<path style="fill:#A5DC69;" d="M359.537,484.101c-22.763-22.34-17.722-64.23-17.69-64.571l-0.007-0.007l0.005,0.005l-0.009-0.009
		l0.006,0.006c0.178-0.016,40.51-3.984,63.323,18.393c22.8,22.377,18.693,63.414,18.662,63.592l0.011,0.011
		C423.839,501.523,382.391,506.534,359.537,484.101z"/>
	<path style="fill:#A5DC69;" d="M290.073,328.254c14.701-14.979,42.266-11.662,42.49-11.641l0.004-0.004l-0.004,0.004l0.006-0.006
		l-0.004,0.004c0.011,0.117,2.622,26.657-12.103,41.669c-14.725,15.003-41.729,12.301-41.846,12.28l-0.008,0.008
		C278.608,370.568,275.311,343.293,290.073,328.254z"/>
</g>
<path d="M10.157,380.756h267.828c0.529,0,4.215-0.009,5.986-0.009c10.505,0,30.391-1.984,43.624-15.469
	c6.688-6.818,10.475-15.244,12.598-23.221c0.122-0.072,0.249-0.126,0.369-0.204l61.809-40.34c4.622-3.017,5.923-9.209,2.907-13.831
	c-3.016-4.621-9.209-5.922-13.83-2.906l-48.852,31.884c-0.02-0.275-0.039-0.523-0.055-0.709c-0.153-2.335-1.122-4.625-2.906-6.41
	c-1.759-1.759-4.01-2.725-6.311-2.897c-4.608-0.472-33.449-2.645-50.383,14.609c-0.47,0.479-0.917,0.971-1.358,1.467
	c-3.375-8.945-8.385-17.736-15.805-25.017c-25.482-24.996-67.995-22.167-72.736-21.769c-2.21,0.131-4.392,0.993-6.153,2.602
	c-1.946,1.779-3.026,4.151-3.218,6.591c-0.646,6.104-4.211,49.449,21.165,74.353v-0.001c0.45,0.442,0.909,0.865,1.369,1.289H101.099
	c-29.757,0-53.965-24.21-53.965-53.965v-69.955H75.44h242.177h128.969c0.006,0,0.012,0.001,0.018,0.001
	c0.007,0,0.014-0.001,0.021-0.001h18.242v69.955c0,29.756-24.208,53.965-53.965,53.965h-22.221l64.636-41.931
	c4.63-3.004,5.949-9.193,2.945-13.823s-9.192-5.947-13.823-2.945l-92.94,60.294c-3.537,2.295-5.253,6.56-4.291,10.664
	c0.961,4.104,4.394,7.163,8.581,7.647l146.906,16.989c0.391,0.045,0.777,0.067,1.161,0.067c5.005,0,9.326-3.754,9.915-8.847
	c0.635-5.482-3.296-10.44-8.779-11.075l-56.023-6.479c22.584-12.673,37.887-36.84,37.887-64.528v-79.949
	c0-5.518-4.474-9.994-9.994-9.994h-17.42c1.952-32.392-2.991-64.365-14.245-91.082c-13.843-32.862-35.707-55.156-63.229-64.474
	c-33.716-11.414-73.227-1.813-109.563,26.322c-21.952-21.873-47.516-33.66-73.876-33.66c-33.919,0-66.52,19.507-91.799,54.926
	c-21.53,30.168-35.38,69.048-38.67,107.97H37.14c-5.519,0-9.994,4.475-9.994,9.994v79.949c0,21.271,9.04,40.461,23.465,53.965
	H10.157c-5.519,0-9.994,4.475-9.994,9.994S4.638,380.756,10.157,380.756z M297.204,335.254L297.204,335.254
	c6.616-6.741,17.636-8.527,25.38-8.878c-0.619,7.95-2.892,18.417-9.255,24.905c-6.371,6.492-16.956,8.758-24.972,9.344
	C288.781,352.499,290.835,341.745,297.204,335.254z M203.13,295.645c12.196,0.214,34.68,2.62,48.65,16.325
	c14.029,13.768,16.364,36.534,16.517,48.787c-12.402,0.073-35.484-1.822-49.461-15.541c0,0-0.001,0-0.001-0.001
	C204.883,331.522,203.017,308.207,203.13,295.645z M373.556,80.238c27.729,9.388,43.158,34.167,51.218,53.302
	c10.22,24.262,14.614,53.55,12.641,83.322H326.997c-3.29-38.922-17.139-77.801-38.67-107.97c-1.527-2.14-3.081-4.217-4.66-6.24
	C314.287,79.303,346.635,71.125,373.556,80.238z M120.997,120.502c21.423-30.018,48.248-46.549,75.531-46.549
	c23.061,0,45.793,11.812,65.214,33.595c0.053,0.065,0.097,0.133,0.152,0.197c0.083,0.097,0.174,0.182,0.26,0.274
	c3.409,3.859,6.718,8.017,9.905,12.482c19.191,26.89,31.653,61.513,34.885,96.359H86.113
	C89.345,182.014,101.807,147.391,120.997,120.502z"/>
<path d="M152.731,114.183c-5.435,5.135-10.638,11.168-15.464,17.93c-10.539,14.768-19.028,32.556-24.546,51.444
	c-1.548,5.298,1.492,10.847,6.79,12.395c0.936,0.273,1.879,0.404,2.807,0.404c4.326,0,8.314-2.832,9.588-7.193
	c4.897-16.76,12.377-32.473,21.63-45.438c4.077-5.713,8.425-10.764,12.922-15.013c4.012-3.791,4.191-10.116,0.401-14.128
	C163.069,110.574,156.745,110.392,152.731,114.183z"/>
<path d="M196.528,93.94c-0.368,0-0.737,0.005-1.105,0.014c-5.517,0.13-9.886,4.708-9.756,10.225
	c0.128,5.438,4.576,9.759,9.987,9.759c0.079,0,0.16-0.001,0.24-0.003c0.212-0.005,0.424-0.008,0.636-0.008
	c5.519,0,9.994-4.475,9.994-9.994S202.047,93.94,196.528,93.94z"/>
<path d="M68.216,278.558c-3.903,3.902-3.903,10.23,0,14.134l15.169,15.169c1.952,1.951,4.509,2.927,7.066,2.927
	c2.557,0,5.116-0.976,7.066-2.927c3.902-3.902,3.902-10.23,0-14.134l-15.169-15.169C78.447,274.656,72.12,274.656,68.216,278.558z"
	/>
<path d="M131.175,263.593l-10.16,10.16c-3.902,3.902-3.902,10.23,0,14.134c1.952,1.951,4.509,2.927,7.066,2.927
	c2.557,0,5.116-0.976,7.066-2.927l10.16-10.16c3.902-3.902,3.902-10.23,0-14.134C141.405,259.691,135.077,259.691,131.175,263.593z"
	/>
<path d="M298.456,258.431c-3.902,3.902-3.902,10.229,0,14.133l5.303,5.303c1.952,1.951,4.509,2.927,7.066,2.927
	c2.557,0,5.116-0.976,7.066-2.928c3.902-3.902,3.902-10.229,0-14.133l-5.303-5.303C308.686,254.526,302.358,254.527,298.456,258.431
	z"/>
<path d="M375.679,257.257l-3.825,3.824c-3.902,3.902-3.904,10.229,0,14.133c1.952,1.952,4.509,2.928,7.066,2.928
	c2.557,0,5.115-0.976,7.066-2.927l3.825-3.824c3.902-3.901,3.904-10.229,0-14.133C385.91,253.355,379.582,253.356,375.679,257.257z"
	/>
<path d="M442.464,291.228c2.557,0,5.116-0.976,7.066-2.928c3.902-3.902,3.902-10.229,0-14.133l-5.495-5.494
	c-3.902-3.901-10.23-3.902-14.133,0.001c-3.902,3.902-3.902,10.229,0,14.133l5.495,5.494
	C437.35,290.252,439.907,291.228,442.464,291.228z"/>
<path d="M256.043,38.843c5.519,0,9.994-4.475,9.994-9.994V9.994c0-5.518-4.474-9.994-9.994-9.994s-9.994,4.475-9.994,9.994V28.85
	C246.049,34.369,250.523,38.843,256.043,38.843z"/>
<path d="M218.928,44.046c1.952,1.95,4.507,2.924,7.063,2.924c2.559,0,5.119-0.977,7.069-2.931
	c3.902-3.904,3.898-10.231-0.006-14.133l-8.13-8.122c-3.906-3.903-10.232-3.899-14.133,0.007
	c-3.902,3.904-3.897,10.231,0.006,14.133L218.928,44.046z"/>
<path d="M286.226,46.874c2.559,0,5.119-0.977,7.07-2.931l8.067-8.075c3.901-3.904,3.897-10.232-0.007-14.133
	c-3.905-3.903-10.232-3.899-14.133,0.007l-8.067,8.075c-3.901,3.905-3.897,10.232,0.007,14.133
	C281.114,45.901,283.669,46.874,286.226,46.874z"/>
<path d="M501.842,437.72h-83.643c-1.805-2.425-3.809-4.749-6.034-6.934c-24.49-24.023-65.198-21.695-70.668-21.258h-45.857
	c-5.519,0-9.994,4.475-9.994,9.994c0,5.518,4.474,9.994,9.994,9.994h35.721c-0.006,2.457,0.057,5.221,0.241,8.206H10.157
	c-5.519,0-9.994,4.475-9.994,9.994c0,5.518,4.474,9.994,9.994,9.994h324.427c2.904,11.757,8.259,24.015,17.952,33.528v-0.001
	c18.317,17.978,45.898,20.767,61.242,20.767c6.424,0,10.704-0.489,11.261-0.557c3.837-0.464,7.056-3.103,8.277-6.769
	c0.344-1.033,0.511-2.098,0.511-3.152c0.424-5.725,1.147-24.832-5.345-43.816h73.36c5.519,0,9.994-4.475,9.994-9.994
	C511.835,442.196,507.362,437.72,501.842,437.72z M366.537,476.968C366.537,476.968,366.536,476.968,366.537,476.968
	c-8.274-8.12-12.149-19.739-13.886-30.321c-0.036-0.338-0.089-0.671-0.157-0.997c-0.942-6.174-1.174-11.942-1.144-16.379
	c11.878,0.24,33.419,2.638,46.818,15.781c13.457,13.208,15.786,35.013,15.968,46.945
	C402.044,492.066,379.949,490.133,366.537,476.968z"/>
<path d="M204.429,412.736H131.08c-5.519,0-9.994-4.475-9.994-9.994s4.474-9.994,9.994-9.994h73.349c5.519,0,9.994,4.475,9.994,9.994
	S209.948,412.736,204.429,412.736z"/>
<path d="M86.608,412.736c-2.628,0-5.207-1.069-7.065-2.929c-1.859-1.858-2.928-4.436-2.928-7.064c0-2.628,1.069-5.207,2.928-7.065
	c1.859-1.859,4.437-2.928,7.065-2.928c2.628,0,5.207,1.068,7.065,2.928s2.928,4.437,2.928,7.065c0,2.628-1.069,5.207-2.928,7.064
	C91.815,411.666,89.237,412.736,86.608,412.736z"/>
<g>
</g>
<g>
</g>
<g>
</g>
<g>
</g>
<g>
</g>
<g>
</g>
<g>
</g>
<g>
</g>
<g>
</g>
<g>
</g>
<g>
</g>
<g>
</g>
<g>
</g>
<g>
</g>
<g>
</g>
</svg>
